<?xml version="1.0" standalone="no"?>
<!DOCTYPE svg PUBLIC "-//W3C//DTD SVG 20010904//EN"
 "http://www.w3.org/TR/2001/REC-SVG-20010904/DTD/svg10.dtd">
<svg version="1.0" xmlns="http://www.w3.org/2000/svg"
 width="500.000000pt" height="500.000000pt" viewBox="0 0 500.000000 500.000000"
 preserveAspectRatio="xMidYMid meet">

<g transform="translate(0.000000,500.000000) scale(0.100000,-0.100000)"
fill="#000000" stroke="none">
<path d="M2410 4334 c-631 -51 -1129 -481 -1272 -1098 -15 -65 -22 -138 -26
-252 -5 -179 9 -294 53 -449 31 -111 137 -326 207 -420 66 -89 223 -246 310
-311 144 -106 358 -200 550 -241 116 -25 419 -25 534 0 201 43 403 133 554
245 237 176 437 460 514 727 71 244 75 544 10 775 -148 528 -578 918 -1104
1003 -103 17 -258 26 -330 21z m265 -119 c436 -63 806 -339 988 -736 40 -87
71 -175 86 -244 6 -27 15 -71 21 -97 13 -61 13 -345 0 -406 -6 -26 -16 -69
-22 -97 -96 -429 -442 -799 -873 -932 -145 -44 -204 -53 -366 -53 -143 0 -252
14 -359 45 -402 117 -739 440 -868 830 -49 148 -62 235 -62 410 0 145 5 195
32 305 87 368 368 711 711 869 226 105 470 141 712 106z"/>
<path d="M2431 3964 c-49 -27 -135 -75 -233 -128 -61 -32 -87 -46 -265 -143
-131 -71 -132 -81 -16 -141 43 -22 97 -51 120 -64 l43 -23 0 -96 c0 -52 -4
-99 -8 -105 -17 -19 -32 -94 -32 -161 0 -135 78 -289 181 -356 27 -18 49 -34
49 -37 0 -3 -26 -15 -57 -25 -193 -66 -383 -279 -400 -451 -3 -31 -1 -54 5
-58 13 -8 147 -31 277 -47 137 -18 677 -18 815 -1 121 15 258 39 271 48 16 10
9 72 -15 139 -54 142 -168 264 -320 340 -48 25 -94 45 -102 45 -8 0 -14 5 -14
10 0 6 4 10 10 10 20 0 137 121 163 169 60 110 74 237 37 347 -13 40 -20 87
-20 146 l0 86 46 26 c26 14 50 26 55 26 13 0 11 -195 -2 -224 -6 -13 -9 -36
-5 -51 6 -24 10 -26 59 -23 l52 3 -3 40 c-1 22 -5 99 -8 171 l-6 132 31 18
c32 19 40 45 19 61 -7 6 -49 29 -93 53 -44 23 -109 58 -144 77 -35 19 -111 60
-170 90 -58 30 -133 70 -167 89 -73 41 -95 42 -153 8z m234 -554 c27 -12 64
-32 82 -46 69 -52 123 -167 123 -258 0 -92 -51 -199 -125 -264 -155 -136 -372
-129 -508 17 -27 29 -60 77 -75 109 -37 78 -38 204 -3 270 49 95 149 172 250
193 65 14 201 3 256 -21z"/>
<path d="M3391 3206 c-7 -8 -11 -37 -9 -68 3 -49 5 -53 28 -53 23 0 25 4 28
53 3 49 -8 82 -28 82 -4 0 -13 -6 -19 -14z"/>
<path d="M3177 3123 c-13 -13 -7 -36 19 -70 27 -36 45 -41 64 -18 10 12 6 22
-20 55 -30 38 -49 48 -63 33z"/>
<path d="M3596 3099 c-23 -19 -36 -40 -36 -55 0 -37 39 -31 73 10 31 40 33 49
13 65 -11 10 -22 6 -50 -20z"/>
<path d="M1388 3104 c-15 -8 -30 -25 -33 -37 -3 -12 -5 -145 -3 -295 l3 -274
28 -24 c28 -24 30 -24 252 -24 212 0 225 1 235 19 6 12 10 130 10 313 0 250
-2 297 -16 316 -15 22 -19 22 -232 22 -172 -1 -223 -4 -244 -16z m422 -559 l0
-25 -183 0 c-184 0 -212 5 -200 36 4 11 43 14 194 14 l189 0 0 -25z"/>
<path d="M3345 3028 c-34 -12 -84 -45 -103 -68 -25 -29 -52 -102 -52 -140 0
-48 22 -101 66 -158 19 -25 34 -56 34 -69 0 -57 12 -63 119 -63 106 0 111 3
111 55 0 13 15 44 34 68 67 88 82 138 65 220 -9 42 -21 61 -58 97 -65 63 -143
84 -216 58z"/>
<path d="M3314 2476 c-3 -8 -4 -25 -2 -38 3 -22 6 -23 98 -23 l95 0 0 35 0 35
-93 3 c-74 2 -93 0 -98 -12z"/>
<path d="M3422 1408 c-21 -21 -14 -63 12 -77 33 -18 66 0 66 37 0 33 -16 52
-45 52 -12 0 -26 -5 -33 -12z"/>
<path d="M793 1394 c-2 -7 -3 -25 -1 -41 3 -27 5 -28 71 -31 l67 -3 0 -194 0
-195 50 0 50 0 0 195 0 195 71 0 70 0 -3 43 -3 42 -184 0 c-132 0 -185 -3
-188 -11z"/>
<path d="M3051 1378 c-13 -33 -43 -114 -102 -278 -28 -80 -54 -151 -56 -157
-4 -9 9 -13 44 -13 l49 0 15 48 15 47 100 3 100 3 15 -48 15 -48 52 -3 52 -3
-21 58 c-34 95 -60 167 -69 188 -5 11 -16 40 -24 65 -8 25 -24 70 -35 100
l-19 55 -61 3 c-56 3 -62 1 -70 -20z m106 -170 l31 -93 -65 -3 c-36 -2 -67 -1
-70 2 -3 2 5 33 17 68 33 96 42 118 49 118 4 0 20 -42 38 -92z"/>
<path d="M1235 1266 c-118 -53 -137 -243 -31 -312 65 -43 168 -43 222 2 l29
24 -25 20 c-26 21 -33 21 -86 -1 -17 -6 -42 -9 -57 -5 -32 8 -67 43 -67 68 0
16 13 18 123 20 l122 3 -2 39 c-3 50 -31 104 -65 129 -34 26 -122 32 -163 13z
m120 -82 c14 -15 25 -31 25 -35 0 -5 -36 -9 -80 -9 -87 0 -96 7 -58 47 30 33
81 31 113 -3z"/>
<path d="M1641 1254 c-30 -25 -31 -25 -31 -5 0 18 -6 21 -40 21 l-40 0 0 -170
0 -170 40 0 40 0 0 93 c0 97 11 155 32 169 23 14 74 9 91 -10 14 -15 17 -41
17 -135 l0 -117 45 0 45 0 0 113 c0 131 11 157 63 157 18 0 38 -4 46 -9 19
-12 30 -86 26 -162 -6 -91 -2 -99 51 -99 l44 0 0 103 c-1 190 -25 237 -122
245 -44 3 -59 0 -88 -20 l-35 -24 -34 23 c-48 32 -110 31 -150 -3z"/>
<path d="M2205 1264 c-35 -18 -65 -44 -65 -55 0 -5 12 -15 28 -23 24 -13 30
-12 51 5 46 38 131 16 131 -34 0 -13 -9 -17 -37 -17 -128 -2 -209 -66 -183
-145 15 -45 39 -64 93 -71 36 -5 55 -2 87 15 48 25 50 25 50 6 0 -10 11 -15
35 -15 l35 0 0 139 c0 138 0 138 -27 166 -16 15 -38 31 -51 36 -37 14 -114 10
-147 -7z m145 -205 c0 -33 -17 -56 -50 -68 -55 -19 -103 17 -80 59 13 24 25
28 83 29 41 1 47 -2 47 -20z"/>
<path d="M2650 1273 c-8 -3 -25 -15 -37 -26 l-23 -20 0 21 c0 19 -6 22 -40 22
l-40 0 0 -170 0 -170 45 0 45 0 0 115 c0 132 11 155 74 155 52 0 60 -18 66
-149 l5 -116 45 0 45 0 3 80 c2 44 -2 110 -8 146 -15 86 -39 111 -112 115 -29
2 -60 1 -68 -3z"/>
<path d="M3645 1266 c-16 -7 -41 -25 -54 -39 l-23 -25 31 -17 c30 -15 33 -15
58 5 29 22 92 27 111 8 7 -7 12 -22 12 -35 0 -19 -5 -23 -29 -23 -50 0 -128
-22 -156 -44 -18 -14 -28 -34 -32 -62 -5 -36 -1 -46 25 -75 28 -31 34 -34 90
-34 50 0 65 4 86 24 26 24 26 24 26 3 0 -19 6 -22 40 -22 l40 0 0 125 c0 142
-10 173 -63 205 -38 23 -117 26 -162 6z m135 -213 c0 -37 -9 -49 -44 -62 -56
-22 -110 33 -71 73 11 10 34 16 66 16 47 0 49 -1 49 -27z"/>
<path d="M4078 1264 c-16 -8 -28 -19 -28 -24 0 -6 -4 -10 -10 -10 -5 0 -10 9
-10 20 0 17 -7 20 -45 20 l-45 0 0 -170 0 -170 45 0 45 0 0 93 c0 124 17 161
78 165 l42 3 0 45 c0 39 -2 44 -22 44 -13 -1 -35 -8 -50 -16z"/>
<path d="M3410 1071 c0 -213 0 -211 -51 -211 -15 0 -19 -7 -19 -35 l0 -35 51
0 c43 0 55 5 80 29 l29 29 0 211 0 211 -45 0 -45 0 0 -199z"/>
</g>
</svg>
